<svg width="140" height="140" viewBox="0 0 140 140" fill="none" xmlns="http://www.w3.org/2000/svg">
<path opacity="0.5" fill-rule="evenodd" clip-rule="evenodd" d="M65.5473 139.97C49.8715 139.439 25.257 139.97 10 122.994C0.0635248 111.939 -0.499996 91.9959 10.0616 78.2351C10.7991 64.0125 21.2689 53.6308 29.7208 42.2037C40.6377 27.4437 47.9119 8.0985 65.5473 3.21731C86.958 -2.70882 113.262 -1.32837 128.581 14.8408C143.771 30.8736 140.815 56.4954 136.62 78.2351C133.238 95.7595 126.933 111.326 113.5 122.995C101.298 133.593 81.6611 140.516 65.5473 139.97Z" fill="#FEF6CD"/>
<ellipse cx="70" cy="69.9969" rx="60" ry="59.9973" fill="#FCD305"/>
<g clip-path="url(#clip0_9036_3514)">
<path d="M61.432 37.7661C51.3931 40.4559 45.9929 46.3111 42.8535 55.0139C42.284 56.5926 43.0583 58.3405 44.6126 58.9738L51.1404 61.6338C52.7101 62.2734 54.5044 61.5448 55.1829 59.9916C57.2758 55.2008 59.0039 52.3023 63.9249 50.9837C67.7942 49.947 73.2473 51.1548 74.2526 54.9066C75.0126 57.7429 73.0615 59.8269 69.8149 62.9923C66.029 66.6837 60.9663 71.3718 63.05 79.1478L63.3798 80.3788C63.8265 82.0458 65.54 83.0351 67.2071 82.5884L76.3219 80.1462C77.989 79.6995 78.9783 77.9861 78.5316 76.3191L78.3371 75.593C76.8927 70.2027 92.5877 65.7568 88.679 51.1702C85.7356 40.1853 72.1076 34.9057 61.432 37.7661ZM72.7574 85.0723C67.9534 86.3594 65.0923 91.3148 66.3795 96.1185C67.6667 100.922 72.6223 103.783 77.4263 102.496C82.2302 101.209 85.0913 96.2535 83.8041 91.4497C82.5169 86.6459 77.5614 83.7851 72.7574 85.0723Z" fill="#F5F8FA"/>
</g>
<path opacity="0.5" fill-rule="evenodd" clip-rule="evenodd" d="M123.075 123.874C125.136 122.478 128.169 120.663 130.617 121.102C133.223 121.57 134.911 124.436 135.237 127.061C135.518 129.324 133.568 131.028 132.064 132.747C130.871 134.111 129.54 135.264 127.761 135.608C125.634 136.018 123.245 136.215 121.648 134.757C119.936 133.194 119.13 130.597 119.859 128.394C120.508 126.431 121.362 125.036 123.075 123.874Z" fill="#FEF6CD"/>
<path opacity="0.5" fill-rule="evenodd" clip-rule="evenodd" d="M0.0749014 16.6521C0.382098 11.2734 3.70176 6.98656 8.57733 4.84487C16.0105 1.57971 25.7244 -3.34612 30.5048 3.28518C35.2971 9.93285 27.4736 17.6157 22.4442 24.0807C18.3088 29.3965 13.2816 35.6885 6.93611 33.5812C0.614525 31.4819 -0.309685 23.3859 0.0749014 16.6521Z" fill="#FEF6CD"/>
<defs>
<clipPath id="clip0_9036_3514">
<rect width="79.9998" height="79.9967" fill="white" transform="matrix(0.965929 -0.258808 0.25883 0.965923 21.0103 41.6951)"/>
</clipPath>
</defs>
</svg>
