<svg width="140" height="140" viewBox="0 0 140 140" fill="none" xmlns="http://www.w3.org/2000/svg">
<path opacity="0.5" fill-rule="evenodd" clip-rule="evenodd" d="M65.5473 139.97C49.8715 139.439 25.257 139.97 10 122.995C0.0635248 111.939 -0.499996 91.9959 10.0616 78.2351C10.7991 64.0125 21.2689 53.6308 29.7208 42.2037C40.6377 27.4437 47.9119 8.09852 65.5473 3.21732C86.958 -2.70881 113.262 -1.32836 128.581 14.8408C143.771 30.8736 140.815 56.4954 136.62 78.2351C133.238 95.7595 126.933 111.326 113.5 122.995C101.298 133.593 81.6611 140.516 65.5473 139.97Z" fill="#F7D4D4"/>
<ellipse cx="70" cy="69.9969" rx="60" ry="59.9973" fill="#D62926"/>
<g clip-path="url(#clip0_9036_3637)">
<path d="M81.0037 67.036L93.0853 46.1111C94.5678 43.5433 93.688 40.2598 91.1197 38.7757L86.469 36.0907C83.9011 34.6082 80.6175 35.488 79.1333 38.0562L67.0517 58.9812L46.1258 46.9002C43.5579 45.4176 40.2743 46.2974 38.7901 48.8657L36.105 53.5161C34.6224 56.0839 35.5023 59.3674 38.0706 60.8515L58.9965 72.9326L46.9149 93.8575C45.4324 96.4253 46.3122 99.7087 48.8805 101.193L53.5312 103.878C56.0991 105.36 59.3844 104.48 60.8669 101.912L72.9485 80.9874L93.8744 93.0684C96.4423 94.5509 99.7275 93.6707 101.21 91.1029L103.895 86.4524C105.378 83.8846 104.498 80.6012 101.93 79.117L81.0037 67.036Z" fill="#F5F8FA"/>
</g>
<path opacity="0.5" fill-rule="evenodd" clip-rule="evenodd" d="M123.075 123.874C125.136 122.478 128.169 120.663 130.617 121.102C133.223 121.57 134.911 124.436 135.237 127.061C135.518 129.324 133.568 131.028 132.064 132.747C130.871 134.111 129.54 135.264 127.761 135.608C125.634 136.018 123.245 136.215 121.648 134.757C119.936 133.194 119.13 130.597 119.859 128.394C120.508 126.431 121.362 125.036 123.075 123.874Z" fill="#F7D4D4"/>
<path opacity="0.5" fill-rule="evenodd" clip-rule="evenodd" d="M0.0749014 16.6521C0.382098 11.2734 3.70176 6.98655 8.57733 4.84486C16.0105 1.5797 25.7244 -3.34613 30.5048 3.28517C35.2971 9.93284 27.4736 17.6157 22.4442 24.0807C18.3088 29.3965 13.2816 35.6885 6.93611 33.5812C0.614525 31.4819 -0.309685 23.3859 0.0749014 16.6521Z" fill="#F7D4D4"/>
<defs>
<clipPath id="clip0_9036_3637">
<rect width="79.9998" height="79.9967" fill="white" transform="matrix(0.965929 -0.258808 0.25883 0.965923 21.0103 41.7013)"/>
</clipPath>
</defs>
</svg>
