<svg width="140" height="140" viewBox="0 0 140 140" fill="none" xmlns="http://www.w3.org/2000/svg">
<path opacity="0.5" fill-rule="evenodd" clip-rule="evenodd" d="M65.5473 139.97C49.8715 139.439 25.257 139.97 10 122.995C0.0635248 111.939 -0.499996 91.9959 10.0616 78.2351C10.7991 64.0125 21.2689 53.6308 29.7208 42.2037C40.6377 27.4437 47.9119 8.09852 65.5473 3.21732C86.958 -2.70881 113.262 -1.32836 128.581 14.8408C143.771 30.8736 140.815 56.4954 136.62 78.2351C133.238 95.7595 126.933 111.326 113.5 122.995C101.298 133.593 81.6611 140.516 65.5473 139.97Z" fill="#CDE5F8"/>
<ellipse cx="70" cy="69.9969" rx="60" ry="59.9973" fill="#047CDD"/>
<path d="M66.1107 93.7093L68.6261 93.0353L63.7578 74.8674L61.2424 75.5414C59.8531 75.9136 58.4252 75.0892 58.053 73.7L56.4431 67.692C56.0708 66.3028 56.8952 64.875 58.2845 64.5028L72.3709 60.7285C73.7602 60.3562 75.1881 61.1806 75.5604 62.5698L82.7126 89.261L85.228 88.587C86.6173 88.2148 88.0452 89.0392 88.4174 90.4284L90.0273 96.4363C90.3996 97.8255 89.5752 99.2534 88.1859 99.6256L69.0686 104.748C67.6793 105.12 66.2514 104.296 65.8792 102.907L64.2693 96.8986C63.897 95.5093 64.7214 94.0815 66.1107 93.7093ZM61.3727 37.7946C56.3713 39.1346 53.4034 44.275 54.7435 49.276C56.0836 54.2771 61.2242 57.2449 66.2255 55.9049C71.2268 54.5648 74.1947 49.4245 72.8546 44.4234C71.5145 39.4223 66.3738 36.4546 61.3727 37.7946Z" fill="#F5F8FA"/>
<path opacity="0.5" fill-rule="evenodd" clip-rule="evenodd" d="M123.075 123.874C125.136 122.478 128.169 120.663 130.617 121.102C133.223 121.57 134.911 124.436 135.237 127.061C135.518 129.324 133.568 131.028 132.064 132.747C130.871 134.111 129.54 135.264 127.761 135.608C125.634 136.018 123.245 136.215 121.648 134.757C119.936 133.194 119.13 130.597 119.859 128.394C120.508 126.431 121.362 125.036 123.075 123.874Z" fill="#CDE5F8"/>
<path opacity="0.5" fill-rule="evenodd" clip-rule="evenodd" d="M0.0749014 16.6521C0.382098 11.2734 3.70176 6.98655 8.57733 4.84486C16.0105 1.5797 25.7244 -3.34613 30.5048 3.28517C35.2971 9.93284 27.4736 17.6157 22.4442 24.0807C18.3088 29.3965 13.2816 35.6885 6.93611 33.5812C0.614525 31.4819 -0.309685 23.3859 0.0749014 16.6521Z" fill="#CDE5F8"/>
</svg>
